<svg id="Слой_1" data-name="Слой 1" xmlns="http://www.w3.org/2000/svg" xmlns:xlink="http://www.w3.org/1999/xlink" viewBox="0 0 500 445.5"><defs><style>.cls-1{fill:url(#Безымянный_градиент_8);}</style><linearGradient id="Безымянный_градиент_8" x1="250" y1="472.75" x2="250" y2="27.25" gradientUnits="userSpaceOnUse"><stop offset="0" stop-color="#495055"/><stop offset="0.07" stop-color="#4e4f54"/><stop offset="0.15" stop-color="#5b4d50"/><stop offset="0.23" stop-color="#72484a"/><stop offset="0.32" stop-color="#924341"/><stop offset="0.41" stop-color="#ba3b36"/><stop offset="0.49" stop-color="#e6332a"/><stop offset="0.52" stop-color="#e4412c"/><stop offset="0.62" stop-color="#df6731"/><stop offset="0.72" stop-color="#db8535"/><stop offset="0.82" stop-color="#d89a38"/><stop offset="0.91" stop-color="#d7a739"/><stop offset="1" stop-color="#d6ab3a"/></linearGradient></defs><path class="cls-1" d="M475,225.5A25.18,25.18,0,0,0,470,226L380,70.05a25,25,0,1,0-42.18-22.18H159.89a25,25,0,1,0-40.4,23.78L30.33,226.08A24.5,24.5,0,0,0,25,225.5a25,25,0,1,0,5.32,49.44L119.1,428.69a25,25,0,1,0,40.6,24.46h79a12.68,12.68,0,0,0,23,0H338a25,25,0,1,0,42.36-22.82L470,275A25,25,0,1,0,475,225.5Zm-109.27-37,87.16,50.32a24.86,24.86,0,0,0-2.8,9.66H365.72Zm84.36,64a24.82,24.82,0,0,0,2.8,9.65L373,308.29a12.66,12.66,0,0,0-7.31-4.45v-51.3Zm-99.6,63.78a12.5,12.5,0,0,0,.86,4.5L307.69,346l-54-93.47H361.66v51.2A12.68,12.68,0,0,0,350.48,316.32Zm-211.72-1.46V262.59a12.71,12.71,0,0,0,11-10h96.9l-51.57,89.31a7.15,7.15,0,0,0-6.65,1.71Zm59.92,29,51.53-89.26,54,93.48-54,31.16-49.55-28.61a7.22,7.22,0,0,0,.17-1.55A7.38,7.38,0,0,0,198.68,343.82Zm46.59-219.15a7.32,7.32,0,0,0,9.88,0l39.65,22.89a12.58,12.58,0,0,0,3.78,15.12l-48.37,83.77-54-93.48Zm61.16,40.78a12.7,12.7,0,0,0,10.26-5.25l45,26v62.32H253.72l48.4-83.82A12.82,12.82,0,0,0,306.43,165.45Zm55.23-88.21V181.48l-43.15-24.92a12.83,12.83,0,0,0,.65-3.84A12.65,12.65,0,0,0,314.6,143l38.93-67.41A24.92,24.92,0,0,0,361.66,77.24Zm-11.8-3.38-38.71,67.05a12.8,12.8,0,0,0-4.72-.92,12.65,12.65,0,0,0-9.38,4.18L257.3,121.22a7.56,7.56,0,0,0,.32-2,7.91,7.91,0,0,0-.17-1.55l85.68-49.47A24.73,24.73,0,0,0,349.86,73.86ZM159.05,60H338.67a24.18,24.18,0,0,0,2.15,4.78l-85.29,49.24a7.37,7.37,0,0,0-10.64,0L157.55,63.63A24.07,24.07,0,0,0,159.05,60Zm-3.64,7L243,117.64a6.83,6.83,0,0,0,.15,3.58l-48.92,28.24L149.83,72.59A24.93,24.93,0,0,0,155.41,67.08ZM138.76,77a25,25,0,0,0,7.59-2.34l44.35,76.82-51.94,30Zm54,78,54,93.48H149.9a12.65,12.65,0,0,0-11.14-11.07V186.16Zm-68,93.48H49.92A24.59,24.59,0,0,0,47.21,239L134.7,188.5v49A12.68,12.68,0,0,0,124.74,248.48Zm5.82-171.66a25.59,25.59,0,0,0,4.14.43V183.82L45.05,235.58a25.78,25.78,0,0,0-3.8-4.08Zm4.14,345.93a24.84,24.84,0,0,0-4.67.54L41.25,269.51a25.36,25.36,0,0,0,3.8-4.08L134.7,317.2ZM47.21,262a24.59,24.59,0,0,0,2.71-9.46h74.92a12.72,12.72,0,0,0,9.86,9.92v50.05Zm91.55,161V319.54L186.34,347a7.18,7.18,0,0,0-.32,2,7.33,7.33,0,0,0,2,5.07l-41.25,71.44A24.72,24.72,0,0,0,138.76,423Zm11.48,4.73,41.31-71.55a7.23,7.23,0,0,0,1.88.27,7.36,7.36,0,0,0,5.32-2.27l47.41,27.37-90.22,52.09A25.19,25.19,0,0,0,150.24,427.72ZM338.37,441H261a12.66,12.66,0,0,0-21.51,0H159.35a24.94,24.94,0,0,0-1.42-3.82l92.28-53.28,90.17,52.06A24.32,24.32,0,0,0,338.37,441Zm4.22-8.44-88.32-51,51.94-30,43.21,74.85A25.2,25.2,0,0,0,342.59,432.54Zm10.45-8-43.32-75,43.66-25.21a12.63,12.63,0,0,0,8.28,4.57v93.87A25,25,0,0,0,353,424.56Zm17-.65a24.49,24.49,0,0,0-4.31-1V328.8a12.66,12.66,0,0,0,9.36-17l80-46.18a25,25,0,0,0,3.95,4.15Zm85.05-188.5-89.36-51.59V77a26.55,26.55,0,0,0,3.81-.8l89.5,155A25.09,25.09,0,0,0,455.08,235.41Z" transform="translate(0 -27.25)"/></svg>